<?xml version="1.0" standalone="no"?>
<!DOCTYPE svg PUBLIC "-//W3C//DTD SVG 20010904//EN"
 "http://www.w3.org/TR/2001/REC-SVG-20010904/DTD/svg10.dtd">
<svg version="1.0" xmlns="http://www.w3.org/2000/svg"
 width="555.000000pt" height="555.000000pt" viewBox="0 0 555.000000 555.000000"
 preserveAspectRatio="xMidYMid meet">
<metadata>
Created by potrace 1.14, written by Peter Selinger 2001-2017
</metadata>
<g transform="translate(0.000000,555.000000) scale(0.100000,-0.100000)"
fill="#000000" stroke="none">
<path d="M3139 5446 c-2 -2 -53 -6 -114 -10 -60 -3 -123 -8 -140 -11 -16 -2
-55 -7 -85 -9 -30 -3 -84 -9 -120 -15 -36 -6 -82 -13 -102 -15 -32 -4 -81 -12
-183 -31 -196 -35 -603 -150 -738 -208 -17 -8 -52 -23 -77 -33 -105 -42 -312
-145 -399 -198 -357 -215 -576 -456 -659 -728 -27 -86 -34 -136 -34 -229 1
-141 28 -244 97 -376 76 -144 193 -276 350 -393 210 -157 960 -467 1245 -515
19 -3 42 -8 50 -10 8 -2 35 -7 60 -10 25 -3 88 -13 141 -20 144 -22 262 -28
489 -29 264 0 547 16 700 39 14 2 50 7 80 10 30 4 62 9 71 10 9 2 34 6 55 9
336 52 642 179 753 313 84 102 125 263 101 403 -59 350 -464 567 -1170 627
-169 14 -689 6 -791 -12 -13 -2 -46 -7 -74 -9 -396 -41 -831 -233 -1100 -488
l-81 -76 -60 32 c-94 51 -105 58 -191 123 -101 78 -165 149 -206 233 -26 53
-32 77 -33 137 -1 65 2 80 37 151 140 287 660 582 1291 731 129 31 136 32 236
50 100 18 271 42 396 55 307 33 768 25 1101 -20 11 -1 43 -5 70 -9 41 -5 137
-24 362 -71 12 -2 86 -23 164 -45 118 -34 151 -40 194 -34 85 10 169 79 195
158 16 50 15 126 -3 169 -18 44 -72 105 -108 124 -24 12 -239 78 -290 89 -9 2
-33 8 -53 13 -20 6 -36 8 -36 6 0 -3 -8 0 -18 5 -10 5 -38 12 -62 16 -25 3
-53 8 -62 11 -19 6 -35 9 -98 19 -25 4 -52 9 -60 10 -15 3 -150 23 -205 30
-16 2 -66 7 -110 10 -44 3 -91 9 -105 11 -28 6 -665 15 -671 10z m308 -1910
c59 -4 119 -9 133 -10 63 -9 117 -16 136 -20 12 -2 39 -7 60 -10 141 -22 340
-98 397 -150 43 -40 36 -59 -32 -90 -60 -26 -248 -79 -331 -91 -25 -4 -54 -9
-65 -11 -213 -40 -524 -67 -780 -67 -152 -1 -381 10 -394 17 -3 2 -33 6 -66
10 -33 3 -70 8 -81 10 -12 3 -39 7 -60 11 -67 10 -98 16 -144 26 -25 6 -52 12
-61 14 -61 13 -180 49 -185 56 -7 12 121 93 219 139 152 70 365 130 517 146
36 3 68 8 71 10 3 2 75 6 160 10 85 4 155 7 156 8 5 4 253 -2 350 -8z"/>
<path d="M1127 2813 c-27 -114 -29 -132 -29 -220 1 -106 8 -167 34 -263 56
-215 185 -432 361 -610 155 -157 245 -220 458 -323 127 -60 198 -91 304 -132
106 -40 165 -57 245 -71 14 -3 48 -9 75 -14 46 -8 98 -14 215 -26 106 -10 366
-4 452 11 18 3 47 8 63 11 68 10 95 17 190 45 269 81 500 251 594 439 118 233
34 487 -219 655 -63 42 -175 97 -182 90 -2 -2 -35 -7 -73 -10 -39 -4 -72 -9
-75 -10 -3 -2 -39 -7 -80 -10 -41 -4 -88 -9 -105 -10 -238 -26 -656 -26 -977
1 -63 5 -70 3 -150 -37 -136 -68 -301 -185 -363 -257 l-20 -23 -46 53 c-151
175 -226 357 -217 526 l3 63 -115 48 c-63 26 -162 69 -219 95 -57 25 -105 46
-106 46 -2 0 -10 -30 -18 -67z m2118 -786 c89 -13 190 -39 253 -64 72 -28 152
-78 152 -94 0 -5 -15 -25 -32 -42 -85 -85 -240 -150 -433 -183 -87 -15 -364
-10 -485 8 -168 25 -402 89 -434 118 -13 12 77 73 189 129 134 67 287 109 475
133 39 5 270 1 315 -5z"/>
<path d="M1664 1290 c45 -508 331 -925 756 -1100 170 -70 335 -99 545 -96 136
1 176 15 233 80 39 45 66 134 58 188 -8 50 -38 109 -73 144 -49 49 -99 64
-242 69 -253 10 -411 69 -552 207 -79 78 -157 201 -188 299 -10 30 -20 39 -69
59 -114 46 -317 143 -411 195 l-64 36 7 -81z"/>
</g>
</svg>
